<?xml version="1.0" encoding="UTF-8" standalone="no"?>
<!-- Created with Inkscape (http://www.inkscape.org/) -->

<svg
   width="256"
   height="256"
   viewBox="0 0 67.733334 67.733334"
   version="1.1"
   id="svg1"
   sodipodi:docname="NoctaliaLogo3.svg"
   inkscape:version="1.4.2 (ebf0e940d0, 2025-05-08)"
   xmlns:inkscape="http://www.inkscape.org/namespaces/inkscape"
   xmlns:sodipodi="http://sodipodi.sourceforge.net/DTD/sodipodi-0.dtd"
   xmlns="http://www.w3.org/2000/svg"
   xmlns:svg="http://www.w3.org/2000/svg">
  <sodipodi:namedview
     id="namedview1"
     pagecolor="#505050"
     bordercolor="#ffffff"
     borderopacity="1"
     inkscape:showpageshadow="0"
     inkscape:pageopacity="0"
     inkscape:pagecheckerboard="1"
     inkscape:deskcolor="#505050"
     inkscape:zoom="6.3971066"
     inkscape:cx="109.58079"
     inkscape:cy="112.55088"
     inkscape:window-width="2560"
     inkscape:window-height="1409"
     inkscape:window-x="0"
     inkscape:window-y="0"
     inkscape:window-maximized="1"
     inkscape:current-layer="svg1" />
  <defs
     id="defs1" />
  <path
     id="rect3"
     style="fill:#808080;stroke-width:6.29839;stroke-linecap:square;stroke-linejoin:round;stroke-miterlimit:6.4;fill-opacity:1"
     d="M 25.887826 19.681486 L 25.887826 30.202291 L 42.141097 30.202291 L 42.141097 19.681486 L 25.887826 19.681486 z M 28.85457 24.689966 A 0.61026001 0.61026001 0 0 1 29.382703 24.995891 C 29.629917 25.424078 30.085618 25.685771 30.580046 25.685771 C 31.074474 25.685771 31.528108 25.424078 31.775322 24.995891 A 0.61026001 0.61026001 0 0 1 32.609379 24.771615 A 0.61026001 0.61026001 0 0 1 32.832105 25.605672 C 32.367845 26.409796 31.508568 26.906367 30.580046 26.906368 C 29.651525 26.906367 28.79018 26.409796 28.32592 25.605672 A 0.61026001 0.61026001 0 0 1 28.548645 24.771615 A 0.61026001 0.61026001 0 0 1 28.85457 24.689966 z M 35.9792 24.689966 A 0.61026001 0.61026001 0 0 1 36.507849 24.995891 C 36.755063 25.424079 37.208696 25.685771 37.703125 25.685771 C 38.197552 25.68577 38.653254 25.424078 38.900468 24.995891 A 0.61026001 0.61026001 0 0 1 39.734526 24.771615 A 0.61026001 0.61026001 0 0 1 39.957251 25.605672 C 39.492992 26.409794 38.631645 26.906366 37.703125 26.906368 C 36.774603 26.906368 35.915326 26.409796 35.451066 25.605672 A 0.61026001 0.61026001 0 0 1 35.673792 24.771615 A 0.61026001 0.61026001 0 0 1 35.9792 24.689966 z " />
</svg>
