<?xml version="1.0" encoding="UTF-8" standalone="no"?>
<!-- Created with Inkscape (http://www.inkscape.org/) -->

<svg
   width="256"
   height="256"
   viewBox="0 0 67.733334 67.733334"
   version="1.1"
   id="svg1"
   sodipodi:docname="NoctaliaLogo4.svg"
   inkscape:version="1.4.2 (ebf0e940d0, 2025-05-08)"
   xmlns:inkscape="http://www.inkscape.org/namespaces/inkscape"
   xmlns:sodipodi="http://sodipodi.sourceforge.net/DTD/sodipodi-0.dtd"
   xmlns="http://www.w3.org/2000/svg"
   xmlns:svg="http://www.w3.org/2000/svg">
  <sodipodi:namedview
     id="namedview1"
     pagecolor="#505050"
     bordercolor="#ffffff"
     borderopacity="1"
     inkscape:showpageshadow="0"
     inkscape:pageopacity="0"
     inkscape:pagecheckerboard="1"
     inkscape:deskcolor="#505050"
     inkscape:zoom="3.1985533"
     inkscape:cx="109.73711"
     inkscape:cy="151.94369"
     inkscape:window-width="2560"
     inkscape:window-height="1409"
     inkscape:window-x="0"
     inkscape:window-y="0"
     inkscape:window-maximized="1"
     inkscape:current-layer="svg1" />
  <defs
     id="defs1" />
  <path
     id="path56"
     style="fill:#808080;fill-opacity:1;stroke:none;stroke-width:1.34608;stroke-miterlimit:9.1;paint-order:fill markers stroke"
     d="M 20.992001 16.086874 C 21.600945 17.952419 22.82714 19.791241 24.471892 20.488672 C 24.013111 21.871476 24.011455 23.513666 24.011455 25.271843 C 24.011455 29.083545 26.723528 32.334951 30.542322 33.621204 C 29.144744 33.44651 27.869486 33.097992 26.869678 32.404741 C 25.053136 32.728923 24.290514 34.748552 24.453805 37.107296 C 25.618452 53.930263 36.270261 52.842365 36.365739 52.814865 C 28.755063 49.101553 29.794669 43.103421 29.609046 40.985096 C 30.017628 44.449399 33.67812 53.695948 46.828667 53.695948 C 46.828667 49.686293 46.848675 39.385149 45.549675 36.20916 C 45.140551 34.971848 44.024484 31.662285 42.66458 31.29163 C 41.560702 32.530348 39.952435 33.186614 38.050908 33.51165 C 41.705426 32.15712 44.272234 28.979416 44.272234 25.271843 C 44.272234 23.513666 44.270013 21.871476 43.81128 20.488672 C 45.456033 19.791241 46.682229 17.952419 47.291171 16.086874 C 45.303395 16.056374 42.140143 16.787551 39.441004 16.873389 C 38.089465 16.521544 36.35502 16.327984 34.141586 16.325619 C 31.928155 16.328019 30.193708 16.521523 28.842167 16.873389 C 26.143032 16.787549 22.979781 16.056282 20.992001 16.086874 z M 40.26731 20.732068 C 42.53951 20.684556 42.031543 21.938727 42.031543 23.817668 C 42.031543 26.2048 40.096463 28.140401 37.709327 28.140401 C 36.946377 28.136701 36.197709 27.93062 35.53995 27.544055 C 35.52449 27.577805 35.511218 27.609147 35.492408 27.639657 L 34.522958 29.212687 C 34.417719 29.383909 34.279167 29.470152 34.141586 29.466936 C 34.004006 29.470036 33.865453 29.383908 33.760214 29.212687 L 32.790764 27.639657 C 32.772054 27.609157 32.758781 27.577815 32.743221 27.544055 C 32.085458 27.93064 31.33731 28.136684 30.574361 28.140401 C 28.187224 28.140401 26.251628 26.2048 26.251628 23.817668 C 26.251628 22.010995 25.785525 20.78481 27.769365 20.735169 C 28.324835 20.721339 29.069235 20.796869 30.073617 20.981148 C 30.745815 21.10445 31.597118 21.43373 32.107601 21.736141 C 33.058408 22.299405 33.181166 22.943819 34.141586 22.943819 C 35.102006 22.943819 35.224759 22.299405 36.17557 21.736141 C 36.686053 21.433723 37.537355 21.10445 38.209554 20.981148 C 39.070453 20.823212 39.742956 20.743032 40.26731 20.732068 z " />
</svg>
